<?xml version="1.0" encoding="UTF-8" standalone="no"?><!-- Generator: Gravit.io --><svg xmlns="http://www.w3.org/2000/svg" xmlns:xlink="http://www.w3.org/1999/xlink" style="isolation:isolate" viewBox="0 0 512 512" width="512pt" height="512pt"><defs><clipPath id="_clipPath_ivROOMmhedRMtVAnNzahgN57TWXvDKZX"><rect width="512" height="512"/></clipPath></defs><g clip-path="url(#_clipPath_ivROOMmhedRMtVAnNzahgN57TWXvDKZX)"><g><g><path d=" M 256.019 506 C 169.743 506 83.46 506 37.676 506 C 30.737 506 24.312 501.617 20.817 494.519 C 17.322 487.408 17.301 478.642 20.735 471.495 C 66.326 376.736 193.086 113.227 239.078 17.664 L 239.088 17.664 C 242.553 10.456 249.019 6 256.019 6 L 256.019 506 L 256.019 506 Z " fill="rgb(174,75,213)"/><path d=" M 256.019 506 C 342.289 506 428.554 506 474.332 506 C 481.281 506 487.696 501.629 491.191 494.519 C 494.665 487.408 494.706 478.642 491.273 471.495 C 445.692 376.736 318.921 113.239 272.95 17.664 C 269.486 10.456 263.01 6 256.019 6 L 256.019 506 L 256.019 506 Z " fill="rgb(119,25,170)"/></g><g><path d=" M 256.011 438.147 C 207.773 438.147 159.532 438.147 133.934 438.147 C 130.055 438.147 126.462 435.696 124.508 431.728 C 122.554 427.752 122.543 422.851 124.462 418.855 C 149.952 365.875 220.825 218.546 246.539 165.116 L 246.545 165.116 C 248.482 161.086 252.097 158.595 256.011 158.595 L 256.011 438.147 L 256.011 438.147 Z " fill="rgb(212,215,238)"/><path d=" M 256.011 438.147 C 304.245 438.147 352.476 438.147 378.07 438.147 C 381.955 438.147 385.542 435.703 387.496 431.728 C 389.439 427.752 389.462 422.851 387.542 418.855 C 362.058 365.875 291.18 218.553 265.477 165.116 C 263.54 161.086 259.919 158.595 256.011 158.595 L 256.011 438.147 L 256.011 438.147 Z " fill="rgb(239,239,239)"/></g></g></g></svg>