<?xml version="1.0" encoding="UTF-8" standalone="no"?><!-- Generator: Gravit.io --><svg xmlns="http://www.w3.org/2000/svg" xmlns:xlink="http://www.w3.org/1999/xlink" style="isolation:isolate" viewBox="0 0 250 100" width="250pt" height="100pt"><defs><clipPath id="_clipPath_aLHheHHFX2GazLeAPY4hF8Ai08gpza0X"><rect width="250" height="100"/></clipPath></defs><g clip-path="url(#_clipPath_aLHheHHFX2GazLeAPY4hF8Ai08gpza0X)"><clipPath id="_clipPath_v4yLfSuMEk6ojRwipyrqXvqWl7uU3BfV"><rect x="0" y="0" width="250" height="100" transform="matrix(1,0,0,1,0,0)" fill="rgb(255,255,255)"/></clipPath><g clip-path="url(#_clipPath_v4yLfSuMEk6ojRwipyrqXvqWl7uU3BfV)"><g><g><path d=" M 116.413 64.625 L 111.413 64.625 L 108.813 55.975 L 95.763 55.975 L 93.163 64.625 L 88.363 64.625 L 99.413 30.175 L 105.413 30.175 L 116.413 64.625 L 116.413 64.625 Z  M 102.313 34.125 L 96.913 52.125 L 107.663 52.125 L 102.313 34.125 L 102.313 34.125 Z  M 133.863 37.675 L 133.863 37.675 Q 137.463 37.675 139.488 39.825 L 139.488 39.825 L 139.488 39.825 Q 141.513 41.975 141.513 45.725 L 141.513 45.725 L 141.513 64.625 L 136.913 64.625 L 136.913 46.375 L 136.913 46.375 Q 136.913 43.575 135.863 42.425 L 135.863 42.425 L 135.863 42.425 Q 134.813 41.275 132.763 41.275 L 132.763 41.275 L 132.763 41.275 Q 130.663 41.275 129.063 42.475 L 129.063 42.475 L 129.063 42.475 Q 127.463 43.675 126.063 45.925 L 126.063 45.925 L 126.063 64.625 L 121.463 64.625 L 121.463 38.275 L 125.413 38.275 L 125.813 42.175 L 125.813 42.175 Q 127.213 40.075 129.288 38.875 L 129.288 38.875 L 129.288 38.875 Q 131.363 37.675 133.863 37.675 L 133.863 37.675 L 133.863 37.675 Z  M 170.113 38.275 L 161.313 64.775 L 161.313 64.775 Q 159.763 69.375 156.988 72.05 L 156.988 72.05 L 156.988 72.05 Q 154.213 74.725 149.063 75.275 L 149.063 75.275 L 148.563 71.675 L 148.563 71.675 Q 151.163 71.225 152.713 70.375 L 152.713 70.375 L 152.713 70.375 Q 154.263 69.525 155.188 68.2 L 155.188 68.2 L 155.188 68.2 Q 156.113 66.875 156.913 64.625 L 156.913 64.625 L 155.363 64.625 L 146.513 38.275 L 151.413 38.275 L 158.463 61.275 L 165.363 38.275 L 170.113 38.275 L 170.113 38.275 Z  M 180.363 64.625 L 175.613 64.625 L 175.613 30.175 L 193.913 30.175 L 193.363 33.975 L 180.363 33.975 L 180.363 45.725 L 191.613 45.725 L 191.613 49.475 L 180.363 49.475 L 180.363 64.625 L 180.363 64.625 Z  M 211.363 37.675 L 211.363 37.675 Q 212.763 37.675 213.963 37.975 L 213.963 37.975 L 213.113 42.475 L 213.113 42.475 Q 211.913 42.175 210.813 42.175 L 210.813 42.175 L 210.813 42.175 Q 208.363 42.175 206.863 43.975 L 206.863 43.975 L 206.863 43.975 Q 205.363 45.775 204.513 49.575 L 204.513 49.575 L 204.513 64.625 L 199.913 64.625 L 199.913 38.275 L 203.863 38.275 L 204.313 43.625 L 204.313 43.625 Q 205.363 40.675 207.163 39.175 L 207.163 39.175 L 207.163 39.175 Q 208.963 37.675 211.363 37.675 L 211.363 37.675 L 211.363 37.675 Z  M 239.113 50.675 L 239.113 50.675 Q 239.113 51.825 239.013 53.025 L 239.013 53.025 L 222.213 53.025 L 222.213 53.025 Q 222.513 57.375 224.413 59.425 L 224.413 59.425 L 224.413 59.425 Q 226.313 61.475 229.313 61.475 L 229.313 61.475 L 229.313 61.475 Q 231.213 61.475 232.813 60.925 L 232.813 60.925 L 232.813 60.925 Q 234.413 60.375 236.163 59.175 L 236.163 59.175 L 238.163 61.925 L 238.163 61.925 Q 233.963 65.225 228.963 65.225 L 228.963 65.225 L 228.963 65.225 Q 223.463 65.225 220.388 61.625 L 220.388 61.625 L 220.388 61.625 Q 217.313 58.025 217.313 51.725 L 217.313 51.725 L 217.313 51.725 Q 217.313 47.625 218.638 44.45 L 218.638 44.45 L 218.638 44.45 Q 219.963 41.275 222.438 39.475 L 222.438 39.475 L 222.438 39.475 Q 224.913 37.675 228.263 37.675 L 228.263 37.675 L 228.263 37.675 Q 233.513 37.675 236.313 41.125 L 236.313 41.125 L 236.313 41.125 Q 239.113 44.575 239.113 50.675 L 239.113 50.675 L 239.113 50.675 Z  M 234.563 49.625 L 234.563 49.325 L 234.563 49.325 Q 234.563 45.425 233.013 43.375 L 233.013 43.375 L 233.013 43.375 Q 231.463 41.325 228.363 41.325 L 228.363 41.325 L 228.363 41.325 Q 222.713 41.325 222.213 49.625 L 222.213 49.625 L 234.563 49.625 L 234.563 49.625 Z " fill="rgb(255,255,255)"/></g></g></g><g><rect x="6.232" y="35.551" width="23.224" height="28.493" transform="matrix(1,0,0,1,0,0)" fill="rgb(156,39,176)"/><rect x="57.545" y="35.955" width="23.224" height="28.493" transform="matrix(1,0,0,1,0,0)" fill="rgb(142,36,170)"/><g><g><defs><filter id="hKNbzhCkpfp00pjGdZCmI4iiAw9wLiNW" x="-200%" y="-200%" width="400%" height="400%" filterUnits="objectBoundingBox" color-interpolation-filters="sRGB"><feGaussianBlur xmlns="http://www.w3.org/2000/svg" in="SourceGraphic" stdDeviation="2.146804531419514"/><feOffset xmlns="http://www.w3.org/2000/svg" dx="0" dy="0" result="pf_100_offsetBlur"/><feFlood xmlns="http://www.w3.org/2000/svg" flood-color="#000000" flood-opacity="0.65"/><feComposite xmlns="http://www.w3.org/2000/svg" in2="pf_100_offsetBlur" operator="in" result="pf_100_dropShadow"/><feBlend xmlns="http://www.w3.org/2000/svg" in="SourceGraphic" in2="pf_100_dropShadow" mode="normal"/></filter></defs><g filter="url(#hKNbzhCkpfp00pjGdZCmI4iiAw9wLiNW)"><path d=" M 57.545 12.5 L 57.545 35.955 L 81 35.955 L 57.545 12.5 Z " fill-rule="evenodd" fill="rgb(171,71,188)"/></g><defs><filter id="pudAcYOAotBkrbaC1XAGUhjemtXVqi7l" x="-200%" y="-200%" width="400%" height="400%" filterUnits="objectBoundingBox" color-interpolation-filters="sRGB"><feGaussianBlur xmlns="http://www.w3.org/2000/svg" in="SourceGraphic" stdDeviation="2.146804531419514"/><feOffset xmlns="http://www.w3.org/2000/svg" dx="0" dy="0" result="pf_100_offsetBlur"/><feFlood xmlns="http://www.w3.org/2000/svg" flood-color="#000000" flood-opacity="0.65"/><feComposite xmlns="http://www.w3.org/2000/svg" in2="pf_100_offsetBlur" operator="in" result="pf_100_dropShadow"/><feBlend xmlns="http://www.w3.org/2000/svg" in="SourceGraphic" in2="pf_100_dropShadow" mode="normal"/></filter></defs><g filter="url(#pudAcYOAotBkrbaC1XAGUhjemtXVqi7l)"><path d=" M 29.455 12.5 L 29.455 35.955 L 6 35.955 L 29.455 12.5 Z " fill-rule="evenodd" fill="rgb(106,27,154)"/></g><defs><filter id="TsXc92dkJOj9SultcqvnGcpnOhvcXasj" x="-200%" y="-200%" width="400%" height="400%" filterUnits="objectBoundingBox" color-interpolation-filters="sRGB"><feGaussianBlur xmlns="http://www.w3.org/2000/svg" in="SourceGraphic" stdDeviation="2.146804531419514"/><feOffset xmlns="http://www.w3.org/2000/svg" dx="0" dy="0" result="pf_100_offsetBlur"/><feFlood xmlns="http://www.w3.org/2000/svg" flood-color="#000000" flood-opacity="0.65"/><feComposite xmlns="http://www.w3.org/2000/svg" in2="pf_100_offsetBlur" operator="in" result="pf_100_dropShadow"/><feBlend xmlns="http://www.w3.org/2000/svg" in="SourceGraphic" in2="pf_100_dropShadow" mode="normal"/></filter></defs><g filter="url(#TsXc92dkJOj9SultcqvnGcpnOhvcXasj)"><path d=" M 29.455 87.5 L 29.455 64.045 L 6 64.045 L 29.455 87.5 Z " fill-rule="evenodd" fill="rgb(171,71,188)"/></g><defs><filter id="nMTEeCDqfYfsnEaVLYmDWW2bQUj0tVM6" x="-200%" y="-200%" width="400%" height="400%" filterUnits="objectBoundingBox" color-interpolation-filters="sRGB"><feGaussianBlur xmlns="http://www.w3.org/2000/svg" in="SourceGraphic" stdDeviation="2.146804531419514"/><feOffset xmlns="http://www.w3.org/2000/svg" dx="0" dy="0" result="pf_100_offsetBlur"/><feFlood xmlns="http://www.w3.org/2000/svg" flood-color="#000000" flood-opacity="0.65"/><feComposite xmlns="http://www.w3.org/2000/svg" in2="pf_100_offsetBlur" operator="in" result="pf_100_dropShadow"/><feBlend xmlns="http://www.w3.org/2000/svg" in="SourceGraphic" in2="pf_100_dropShadow" mode="normal"/></filter></defs><g filter="url(#nMTEeCDqfYfsnEaVLYmDWW2bQUj0tVM6)"><path d=" M 57.545 87.5 L 57.545 64.045 L 81 64.045 L 57.545 87.5 Z " fill-rule="evenodd" fill="rgb(106,27,154)"/></g><rect x="32.09" y="10.097" width="23.224" height="28.493" transform="matrix(0,-1,1,0,19.359,68.045)" fill="rgb(156,39,176)"/></g><rect x="32.09" y="61.41" width="23.224" height="28.493" transform="matrix(0,1,-1,0,119.359,31.955)" fill="rgb(156,39,176)"/></g></g></g></svg>