<?xml version="1.0" encoding="UTF-8" standalone="no"?><!-- Generator: Gravit.io --><svg xmlns="http://www.w3.org/2000/svg" xmlns:xlink="http://www.w3.org/1999/xlink" style="isolation:isolate" viewBox="0 0 250 100" width="250pt" height="100pt"><defs><clipPath id="_clipPath_uje2haewNCcd9I3TzgDJ0LhsIElcR2I2"><rect width="250" height="100"/></clipPath></defs><g clip-path="url(#_clipPath_uje2haewNCcd9I3TzgDJ0LhsIElcR2I2)"><g><clipPath id="_clipPath_j87BJ7sxoc9KV7QxYBF29mCXF6CljwLc"><rect x="10.887" y="12.5" width="75" height="75" transform="matrix(1,0,0,1,0,0)" fill="rgb(255,255,255)"/></clipPath><g clip-path="url(#_clipPath_j87BJ7sxoc9KV7QxYBF29mCXF6CljwLc)"><g><g><g><path d=" M 48.39 86.621 C 35.752 86.621 23.113 86.621 16.406 86.621 C 15.39 86.621 14.449 85.979 13.937 84.939 C 13.425 83.898 13.422 82.614 13.925 81.567 C 20.603 67.686 39.172 29.086 45.909 15.087 L 45.91 15.087 C 46.418 14.032 47.365 13.379 48.39 13.379 L 48.39 86.621 L 48.39 86.621 Z " fill="rgb(174,75,213)"/><path d=" M 48.39 86.621 C 61.027 86.621 73.664 86.621 80.37 86.621 C 81.388 86.621 82.327 85.981 82.839 84.939 C 83.348 83.898 83.354 82.614 82.851 81.567 C 76.174 67.686 57.604 29.088 50.87 15.087 C 50.363 14.032 49.414 13.379 48.39 13.379 L 48.39 86.621 L 48.39 86.621 Z " fill="rgb(119,25,170)"/></g><g><path d=" M 48.389 76.682 C 41.323 76.682 34.256 76.682 30.507 76.682 C 29.939 76.682 29.412 76.323 29.126 75.741 C 28.84 75.159 28.838 74.441 29.119 73.856 C 32.853 66.095 43.235 44.514 47.002 36.687 L 47.002 36.687 C 47.286 36.097 47.816 35.732 48.389 35.732 L 48.389 76.682 L 48.389 76.682 Z " fill="rgb(212,215,238)"/><path d=" M 48.389 76.682 C 55.455 76.682 62.52 76.682 66.269 76.682 C 66.838 76.682 67.363 76.324 67.65 75.741 C 67.934 75.159 67.938 74.441 67.656 73.856 C 63.923 66.095 53.541 44.515 49.776 36.687 C 49.492 36.097 48.962 35.732 48.389 35.732 L 48.389 76.682 L 48.389 76.682 Z " fill="rgb(239,239,239)"/></g></g></g></g><path d=" M 116.413 64.625 L 111.413 64.625 L 108.813 55.975 L 95.763 55.975 L 93.163 64.625 L 88.363 64.625 L 99.413 30.175 L 105.413 30.175 L 116.413 64.625 Z  M 102.313 34.125 L 96.913 52.125 L 107.663 52.125 L 102.313 34.125 Z  M 133.863 37.675 L 133.863 37.675 Q 137.463 37.675 139.488 39.825 L 139.488 39.825 L 139.488 39.825 Q 141.513 41.975 141.513 45.725 L 141.513 45.725 L 141.513 64.625 L 136.913 64.625 L 136.913 46.375 L 136.913 46.375 Q 136.913 43.575 135.863 42.425 L 135.863 42.425 L 135.863 42.425 Q 134.813 41.275 132.763 41.275 L 132.763 41.275 L 132.763 41.275 Q 130.663 41.275 129.063 42.475 L 129.063 42.475 L 129.063 42.475 Q 127.463 43.675 126.063 45.925 L 126.063 45.925 L 126.063 64.625 L 121.463 64.625 L 121.463 38.275 L 125.413 38.275 L 125.813 42.175 L 125.813 42.175 Q 127.213 40.075 129.288 38.875 L 129.288 38.875 L 129.288 38.875 Q 131.363 37.675 133.863 37.675 L 133.863 37.675 Z  M 170.113 38.275 L 161.313 64.775 L 161.313 64.775 Q 159.763 69.375 156.988 72.05 L 156.988 72.05 L 156.988 72.05 Q 154.213 74.725 149.063 75.275 L 149.063 75.275 L 148.563 71.675 L 148.563 71.675 Q 151.163 71.225 152.713 70.375 L 152.713 70.375 L 152.713 70.375 Q 154.263 69.525 155.188 68.2 L 155.188 68.2 L 155.188 68.2 Q 156.113 66.875 156.913 64.625 L 156.913 64.625 L 155.363 64.625 L 146.513 38.275 L 151.413 38.275 L 158.463 61.275 L 165.363 38.275 L 170.113 38.275 Z  M 180.363 64.625 L 175.613 64.625 L 175.613 30.175 L 193.913 30.175 L 193.363 33.975 L 180.363 33.975 L 180.363 45.725 L 191.613 45.725 L 191.613 49.475 L 180.363 49.475 L 180.363 64.625 Z  M 211.363 37.675 L 211.363 37.675 Q 212.763 37.675 213.963 37.975 L 213.963 37.975 L 213.113 42.475 L 213.113 42.475 Q 211.913 42.175 210.813 42.175 L 210.813 42.175 L 210.813 42.175 Q 208.363 42.175 206.863 43.975 L 206.863 43.975 L 206.863 43.975 Q 205.363 45.775 204.513 49.575 L 204.513 49.575 L 204.513 64.625 L 199.913 64.625 L 199.913 38.275 L 203.863 38.275 L 204.313 43.625 L 204.313 43.625 Q 205.363 40.675 207.163 39.175 L 207.163 39.175 L 207.163 39.175 Q 208.963 37.675 211.363 37.675 L 211.363 37.675 Z  M 239.113 50.675 L 239.113 50.675 Q 239.113 51.825 239.013 53.025 L 239.013 53.025 L 222.213 53.025 L 222.213 53.025 Q 222.513 57.375 224.413 59.425 L 224.413 59.425 L 224.413 59.425 Q 226.313 61.475 229.313 61.475 L 229.313 61.475 L 229.313 61.475 Q 231.213 61.475 232.813 60.925 L 232.813 60.925 L 232.813 60.925 Q 234.413 60.375 236.163 59.175 L 236.163 59.175 L 238.163 61.925 L 238.163 61.925 Q 233.963 65.225 228.963 65.225 L 228.963 65.225 L 228.963 65.225 Q 223.463 65.225 220.388 61.625 L 220.388 61.625 L 220.388 61.625 Q 217.313 58.025 217.313 51.725 L 217.313 51.725 L 217.313 51.725 Q 217.313 47.625 218.638 44.45 L 218.638 44.45 L 218.638 44.45 Q 219.963 41.275 222.438 39.475 L 222.438 39.475 L 222.438 39.475 Q 224.913 37.675 228.263 37.675 L 228.263 37.675 L 228.263 37.675 Q 233.513 37.675 236.313 41.125 L 236.313 41.125 L 236.313 41.125 Q 239.113 44.575 239.113 50.675 L 239.113 50.675 Z  M 234.563 49.625 L 234.563 49.325 L 234.563 49.325 Q 234.563 45.425 233.013 43.375 L 233.013 43.375 L 233.013 43.375 Q 231.463 41.325 228.363 41.325 L 228.363 41.325 L 228.363 41.325 Q 222.713 41.325 222.213 49.625 L 222.213 49.625 L 234.563 49.625 Z " fill="rgb(255,255,255)"/></g></g></svg>