<?xml version="1.0" encoding="UTF-8" standalone="no"?><!-- Generator: Gravit.io --><svg xmlns="http://www.w3.org/2000/svg" xmlns:xlink="http://www.w3.org/1999/xlink" style="isolation:isolate" viewBox="0 0 512 512" width="512pt" height="512pt"><defs><clipPath id="_clipPath_FWSz7DvmLk47Ls3WKzSbQhQjb81HsBiv"><rect width="512" height="512"/></clipPath></defs><g clip-path="url(#_clipPath_FWSz7DvmLk47Ls3WKzSbQhQjb81HsBiv)"><g><rect x="162.367" y="162.367" width="187.266" height="187.266" transform="matrix(1,0,0,1,0,0)" fill="rgb(240,98,146)"/><path d=" M 349.633 6 L 349.633 162.367 L 506 162.367 L 349.633 6 Z " fill-rule="evenodd" fill="rgb(245,0,87)"/><path d=" M 162.367 6 L 162.367 162.367 L 6 162.367 L 162.367 6 Z " fill-rule="evenodd" fill="rgb(240,98,146)"/><path d=" M 162.367 506 L 162.367 349.633 L 6 349.633 L 162.367 506 Z " fill-rule="evenodd" fill="rgb(240,98,146)"/><path d=" M 349.633 506 L 349.633 349.633 L 506 349.633 L 349.633 506 Z " fill-rule="evenodd" fill="rgb(245,0,87)"/><rect x="7.544" y="159.676" width="154.824" height="189.956" transform="matrix(1,0,0,1,0,0)" fill="rgb(233,30,99)"/><rect x="349.633" y="162.367" width="154.824" height="189.956" transform="matrix(1,0,0,1,0,0)" fill="rgb(233,30,99)"/><rect x="179.934" y="-10.023" width="154.824" height="189.956" transform="matrix(0,-1,1,0,172.39,342.301)" fill="rgb(233,30,99)"/><rect x="179.934" y="332.066" width="154.824" height="189.956" transform="matrix(0,1,-1,0,684.39,169.699)" fill="rgb(233,30,99)"/></g></g></svg>