<?xml version="1.0" encoding="UTF-8" standalone="no"?><!-- Generator: Gravit.io --><svg xmlns="http://www.w3.org/2000/svg" xmlns:xlink="http://www.w3.org/1999/xlink" style="isolation:isolate" viewBox="0 0 300 100" width="300pt" height="100pt"><defs><clipPath id="_clipPath_YXtBLYIppv7n0OCiIwalK5Qsj1CpGl0b"><rect width="300" height="100"/></clipPath></defs><g clip-path="url(#_clipPath_YXtBLYIppv7n0OCiIwalK5Qsj1CpGl0b)"><g><g><rect x="36.035" y="35.019" width="29.963" height="29.963" transform="matrix(1,0,0,1,0,0)" fill="rgb(240,98,146)"/><path d=" M 65.997 10 L 65.997 35.019 L 91.016 35.019 L 65.997 10 Z " fill-rule="evenodd" fill="rgb(245,0,87)"/><path d=" M 36.035 10 L 36.035 35.019 L 11.016 35.019 L 36.035 10 Z " fill-rule="evenodd" fill="rgb(240,98,146)"/><path d=" M 36.035 90 L 36.035 64.981 L 11.016 64.981 L 36.035 90 Z " fill-rule="evenodd" fill="rgb(240,98,146)"/><path d=" M 65.997 90 L 65.997 64.981 L 91.016 64.981 L 65.997 90 Z " fill-rule="evenodd" fill="rgb(245,0,87)"/><rect x="11.263" y="34.588" width="24.772" height="30.393" transform="matrix(1,0,0,1,0,0)" fill="rgb(233,30,99)"/><rect x="65.997" y="35.019" width="24.772" height="30.393" transform="matrix(1,0,0,1,0,0)" fill="rgb(233,30,99)"/><rect x="38.846" y="7.436" width="24.772" height="30.393" transform="matrix(0,-1,1,0,28.599,73.864)" fill="rgb(233,30,99)"/><rect x="38.846" y="62.171" width="24.772" height="30.393" transform="matrix(0,1,-1,0,128.599,26.136)" fill="rgb(233,30,99)"/></g><path d=" M 126.529 71.167 L 117.064 54.417 L 110.926 54.417 L 110.926 71.167 L 105.476 71.167 L 105.476 31.644 L 115.859 31.644 L 115.859 31.644 Q 123.259 31.644 127.074 34.454 L 127.074 34.454 L 127.074 34.454 Q 130.889 37.265 130.889 42.83 L 130.889 42.83 L 130.889 42.83 Q 130.889 46.96 128.766 49.541 L 128.766 49.541 L 128.766 49.541 Q 126.644 52.122 122.341 53.442 L 122.341 53.442 L 133.011 71.167 L 126.529 71.167 Z  M 110.926 50.229 L 116.433 50.229 L 116.433 50.229 Q 120.735 50.229 122.915 48.48 L 122.915 48.48 L 122.915 48.48 Q 125.095 46.73 125.095 42.83 L 125.095 42.83 L 125.095 42.83 Q 125.095 39.158 122.886 37.523 L 122.886 37.523 L 122.886 37.523 Q 120.678 35.888 115.802 35.888 L 115.802 35.888 L 110.926 35.888 L 110.926 50.229 Z  M 162.726 55.163 L 162.726 55.163 Q 162.726 56.482 162.611 57.859 L 162.611 57.859 L 143.337 57.859 L 143.337 57.859 Q 143.681 62.85 145.861 65.201 L 145.861 65.201 L 145.861 65.201 Q 148.04 67.553 151.482 67.553 L 151.482 67.553 L 151.482 67.553 Q 153.662 67.553 155.498 66.922 L 155.498 66.922 L 155.498 66.922 Q 157.333 66.291 159.341 64.915 L 159.341 64.915 L 161.636 68.07 L 161.636 68.07 Q 156.817 71.856 151.081 71.856 L 151.081 71.856 L 151.081 71.856 Q 144.771 71.856 141.243 67.725 L 141.243 67.725 L 141.243 67.725 Q 137.715 63.595 137.715 56.367 L 137.715 56.367 L 137.715 56.367 Q 137.715 51.664 139.235 48.021 L 139.235 48.021 L 139.235 48.021 Q 140.755 44.378 143.595 42.313 L 143.595 42.313 L 143.595 42.313 Q 146.434 40.248 150.278 40.248 L 150.278 40.248 L 150.278 40.248 Q 156.301 40.248 159.513 44.206 L 159.513 44.206 L 159.513 44.206 Q 162.726 48.164 162.726 55.163 L 162.726 55.163 Z  M 157.506 53.958 L 157.506 53.614 L 157.506 53.614 Q 157.506 49.14 155.727 46.788 L 155.727 46.788 L 155.727 46.788 Q 153.949 44.436 150.392 44.436 L 150.392 44.436 L 150.392 44.436 Q 143.91 44.436 143.337 53.958 L 143.337 53.958 L 157.506 53.958 Z  M 182.172 40.248 L 182.172 40.248 Q 184.868 40.248 187.105 41.023 L 187.105 41.023 L 187.105 41.023 Q 189.343 41.797 191.408 43.518 L 191.408 43.518 L 188.884 46.845 L 188.884 46.845 Q 187.277 45.698 185.757 45.153 L 185.757 45.153 L 185.757 45.153 Q 184.237 44.608 182.402 44.608 L 182.402 44.608 L 182.402 44.608 Q 178.73 44.608 176.694 47.533 L 176.694 47.533 L 176.694 47.533 Q 174.657 50.459 174.657 56.195 L 174.657 56.195 L 174.657 56.195 Q 174.657 61.932 176.665 64.656 L 176.665 64.656 L 176.665 64.656 Q 178.673 67.381 182.402 67.381 L 182.402 67.381 L 182.402 67.381 Q 184.18 67.381 185.671 66.836 L 185.671 66.836 L 185.671 66.836 Q 187.163 66.291 188.998 65.087 L 188.998 65.087 L 191.408 68.529 L 191.408 68.529 Q 187.277 71.856 182.172 71.856 L 182.172 71.856 L 182.172 71.856 Q 176.034 71.856 172.506 67.725 L 172.506 67.725 L 172.506 67.725 Q 168.978 63.595 168.978 56.31 L 168.978 56.31 L 168.978 56.31 Q 168.978 51.491 170.585 47.878 L 170.585 47.878 L 170.585 47.878 Q 172.191 44.264 175.145 42.256 L 175.145 42.256 L 175.145 42.256 Q 178.099 40.248 182.172 40.248 L 182.172 40.248 Z  M 209.936 40.248 L 209.936 40.248 Q 216.304 40.248 219.832 44.493 L 219.832 44.493 L 219.832 44.493 Q 223.359 48.738 223.359 56.023 L 223.359 56.023 L 223.359 56.023 Q 223.359 60.727 221.753 64.312 L 221.753 64.312 L 221.753 64.312 Q 220.147 67.898 217.107 69.877 L 217.107 69.877 L 217.107 69.877 Q 214.066 71.856 209.879 71.856 L 209.879 71.856 L 209.879 71.856 Q 203.511 71.856 199.955 67.611 L 199.955 67.611 L 199.955 67.611 Q 196.398 63.366 196.398 56.081 L 196.398 56.081 L 196.398 56.081 Q 196.398 51.377 198.005 47.791 L 198.005 47.791 L 198.005 47.791 Q 199.611 44.206 202.651 42.227 L 202.651 42.227 L 202.651 42.227 Q 205.691 40.248 209.936 40.248 L 209.936 40.248 Z  M 209.936 44.493 L 209.936 44.493 Q 202.077 44.493 202.077 56.081 L 202.077 56.081 L 202.077 56.081 Q 202.077 67.611 209.879 67.611 L 209.879 67.611 L 209.879 67.611 Q 217.68 67.611 217.68 56.023 L 217.68 56.023 L 217.68 56.023 Q 217.68 44.493 209.936 44.493 L 209.936 44.493 Z  M 243.437 40.248 L 243.437 40.248 Q 249.804 40.248 253.332 44.493 L 253.332 44.493 L 253.332 44.493 Q 256.86 48.738 256.86 56.023 L 256.86 56.023 L 256.86 56.023 Q 256.86 60.727 255.254 64.312 L 255.254 64.312 L 255.254 64.312 Q 253.648 67.898 250.607 69.877 L 250.607 69.877 L 250.607 69.877 Q 247.567 71.856 243.379 71.856 L 243.379 71.856 L 243.379 71.856 Q 237.012 71.856 233.455 67.611 L 233.455 67.611 L 233.455 67.611 Q 229.899 63.366 229.899 56.081 L 229.899 56.081 L 229.899 56.081 Q 229.899 51.377 231.505 47.791 L 231.505 47.791 L 231.505 47.791 Q 233.111 44.206 236.152 42.227 L 236.152 42.227 L 236.152 42.227 Q 239.192 40.248 243.437 40.248 L 243.437 40.248 Z  M 243.437 44.493 L 243.437 44.493 Q 235.578 44.493 235.578 56.081 L 235.578 56.081 L 235.578 56.081 Q 235.578 67.611 243.379 67.611 L 243.379 67.611 L 243.379 67.611 Q 251.181 67.611 251.181 56.023 L 251.181 56.023 L 251.181 56.023 Q 251.181 44.493 243.437 44.493 L 243.437 44.493 Z  M 283.706 28.144 L 288.984 28.775 L 288.984 71.167 L 284.337 71.167 L 283.821 66.98 L 283.821 66.98 Q 282.33 69.274 280.092 70.565 L 280.092 70.565 L 280.092 70.565 Q 277.855 71.856 275.102 71.856 L 275.102 71.856 L 275.102 71.856 Q 269.709 71.856 266.698 67.611 L 266.698 67.611 L 266.698 67.611 Q 263.686 63.366 263.686 56.195 L 263.686 56.195 L 263.686 56.195 Q 263.686 51.549 265.12 47.935 L 265.12 47.935 L 265.12 47.935 Q 266.554 44.321 269.251 42.285 L 269.251 42.285 L 269.251 42.285 Q 271.947 40.248 275.561 40.248 L 275.561 40.248 L 275.561 40.248 Q 280.207 40.248 283.706 43.977 L 283.706 43.977 L 283.706 28.144 Z  M 276.249 67.668 L 276.249 67.668 Q 278.658 67.668 280.379 66.55 L 280.379 66.55 L 280.379 66.55 Q 282.1 65.431 283.706 63.194 L 283.706 63.194 L 283.706 48.394 L 283.706 48.394 Q 282.215 46.443 280.523 45.44 L 280.523 45.44 L 280.523 45.44 Q 278.83 44.436 276.708 44.436 L 276.708 44.436 L 276.708 44.436 Q 273.209 44.436 271.287 47.361 L 271.287 47.361 L 271.287 47.361 Q 269.365 50.287 269.365 56.081 L 269.365 56.081 L 269.365 56.081 Q 269.365 61.932 271.144 64.8 L 271.144 64.8 L 271.144 64.8 Q 272.922 67.668 276.249 67.668 L 276.249 67.668 Z " fill="rgb(46,46,46)"/></g></g></svg>