<?xml version="1.0" encoding="UTF-8" standalone="no"?><!-- Generator: Gravit.io --><svg xmlns="http://www.w3.org/2000/svg" xmlns:xlink="http://www.w3.org/1999/xlink" style="isolation:isolate" viewBox="0 0 300 100" width="300pt" height="100pt"><defs><clipPath id="_clipPath_r0QXG55TFY0MXmLYvgxCcqMcBJPUqAWk"><rect width="300" height="100"/></clipPath></defs><g clip-path="url(#_clipPath_r0QXG55TFY0MXmLYvgxCcqMcBJPUqAWk)"><g><g><linearGradient id="_lgradient_1" x1="0.09735342173931244" y1="0.1716626966836728" x2="0.7998701245497066" y2="0.8718700644784161" gradientTransform="matrix(81.929,0,0,80,7.39,10)" gradientUnits="userSpaceOnUse"><stop offset="0%" stop-opacity="1" style="stop-color:rgb(34,158,230)"/><stop offset="31.73913043478261%" stop-opacity="1" style="stop-color:rgb(16,118,212)"/><stop offset="66.95652173913044%" stop-opacity="1" style="stop-color:rgb(16,130,216)"/><stop offset="96.95652173913044%" stop-opacity="1" style="stop-color:rgb(14,115,197)"/></linearGradient><path d=" M 42.707 82.464 C 44.553 82.69 46.438 82.807 48.354 82.807 C 70.963 82.807 89.319 66.496 89.319 46.404 C 89.319 26.312 70.963 10 48.354 10 C 25.746 10 7.39 26.312 7.39 46.404 C 7.39 54.782 10.582 62.503 15.944 68.658 C 15.068 70.567 14.58 72.691 14.58 74.927 C 14.58 83.246 21.334 90 29.653 90 C 35.227 90 40.098 86.967 42.707 82.464 Z " fill-rule="evenodd" fill="url(#_lgradient_1)"/><g><path d=" M 36.133 68.855 L 43.205 52.09 L 35.69 40.678 L 60.377 22.774 L 36.133 68.855 L 36.133 68.855 Z " fill="rgb(211,215,239)"/><path d=" M 36.133 68.855 L 35.69 69.903 L 61.019 51.533 L 53.504 41.791 L 61.019 22.308 L 60.377 22.774 L 36.133 68.855 L 36.133 68.855 Z " fill="rgb(238,238,238)"/></g></g><path d=" M 110.09 30.08 L 110.09 30.08 Q 114.23 30.08 117.17 31.25 L 117.17 31.25 L 117.17 31.25 Q 120.11 32.42 122.87 34.88 L 122.87 34.88 L 119.75 38.36 L 119.75 38.36 Q 117.41 36.5 115.16 35.63 L 115.16 35.63 L 115.16 35.63 Q 112.91 34.76 110.33 34.76 L 110.33 34.76 L 110.33 34.76 Q 107.09 34.76 104.99 36.26 L 104.99 36.26 L 104.99 36.26 Q 102.89 37.76 102.89 40.64 L 102.89 40.64 L 102.89 40.64 Q 102.89 42.44 103.61 43.67 L 103.61 43.67 L 103.61 43.67 Q 104.33 44.9 106.28 45.92 L 106.28 45.92 L 106.28 45.92 Q 108.23 46.94 111.95 48.08 L 111.95 48.08 L 111.95 48.08 Q 115.85 49.28 118.43 50.66 L 118.43 50.66 L 118.43 50.66 Q 121.01 52.04 122.6 54.47 L 122.6 54.47 L 122.6 54.47 Q 124.19 56.9 124.19 60.62 L 124.19 60.62 L 124.19 60.62 Q 124.19 64.22 122.42 66.98 L 122.42 66.98 L 122.42 66.98 Q 120.65 69.74 117.32 71.3 L 117.32 71.3 L 117.32 71.3 Q 113.99 72.86 109.43 72.86 L 109.43 72.86 L 109.43 72.86 Q 100.85 72.86 95.39 67.52 L 95.39 67.52 L 98.51 64.04 L 98.51 64.04 Q 101.03 66.08 103.61 67.13 L 103.61 67.13 L 103.61 67.13 Q 106.19 68.18 109.37 68.18 L 109.37 68.18 L 109.37 68.18 Q 113.21 68.18 115.73 66.29 L 115.73 66.29 L 115.73 66.29 Q 118.25 64.4 118.25 60.8 L 118.25 60.8 L 118.25 60.8 Q 118.25 58.76 117.47 57.41 L 117.47 57.41 L 117.47 57.41 Q 116.69 56.06 114.8 54.98 L 114.8 54.98 L 114.8 54.98 Q 112.91 53.9 109.31 52.82 L 109.31 52.82 L 109.31 52.82 Q 102.95 50.9 100.01 48.2 L 100.01 48.2 L 100.01 48.2 Q 97.07 45.5 97.07 40.88 L 97.07 40.88 L 97.07 40.88 Q 97.07 37.76 98.72 35.3 L 98.72 35.3 L 98.72 35.3 Q 100.37 32.84 103.34 31.46 L 103.34 31.46 L 103.34 31.46 Q 106.31 30.08 110.09 30.08 L 110.09 30.08 Z  M 153.59 64.76 L 153.59 64.76 Q 153.59 66.68 154.25 67.61 L 154.25 67.61 L 154.25 67.61 Q 154.91 68.54 156.23 69.02 L 156.23 69.02 L 154.97 72.86 L 154.97 72.86 Q 152.51 72.56 151.01 71.48 L 151.01 71.48 L 151.01 71.48 Q 149.51 70.4 148.79 68.12 L 148.79 68.12 L 148.79 68.12 Q 145.61 72.86 139.37 72.86 L 139.37 72.86 L 139.37 72.86 Q 134.69 72.86 131.99 70.22 L 131.99 70.22 L 131.99 70.22 Q 129.29 67.58 129.29 63.32 L 129.29 63.32 L 129.29 63.32 Q 129.29 58.28 132.92 55.58 L 132.92 55.58 L 132.92 55.58 Q 136.55 52.88 143.21 52.88 L 143.21 52.88 L 148.07 52.88 L 148.07 50.54 L 148.07 50.54 Q 148.07 47.18 146.45 45.74 L 146.45 45.74 L 146.45 45.74 Q 144.83 44.3 141.47 44.3 L 141.47 44.3 L 141.47 44.3 Q 137.99 44.3 132.95 45.98 L 132.95 45.98 L 131.57 41.96 L 131.57 41.96 Q 137.45 39.8 142.49 39.8 L 142.49 39.8 L 142.49 39.8 Q 148.07 39.8 150.83 42.53 L 150.83 42.53 L 150.83 42.53 Q 153.59 45.26 153.59 50.3 L 153.59 50.3 L 153.59 64.76 Z  M 140.63 68.72 L 140.63 68.72 Q 145.37 68.72 148.07 63.8 L 148.07 63.8 L 148.07 56.54 L 143.93 56.54 L 143.93 56.54 Q 135.17 56.54 135.17 63.02 L 135.17 63.02 L 135.17 63.02 Q 135.17 65.84 136.55 67.28 L 136.55 67.28 L 136.55 67.28 Q 137.93 68.72 140.63 68.72 L 140.63 68.72 Z  M 179.81 39.8 L 179.81 39.8 Q 184.13 39.8 186.56 42.38 L 186.56 42.38 L 186.56 42.38 Q 188.99 44.96 188.99 49.46 L 188.99 49.46 L 188.99 72.14 L 183.47 72.14 L 183.47 50.24 L 183.47 50.24 Q 183.47 46.88 182.21 45.5 L 182.21 45.5 L 182.21 45.5 Q 180.95 44.12 178.49 44.12 L 178.49 44.12 L 178.49 44.12 Q 175.97 44.12 174.05 45.56 L 174.05 45.56 L 174.05 45.56 Q 172.13 47 170.45 49.7 L 170.45 49.7 L 170.45 72.14 L 164.93 72.14 L 164.93 40.52 L 169.67 40.52 L 170.15 45.2 L 170.15 45.2 Q 171.83 42.68 174.32 41.24 L 174.32 41.24 L 174.32 41.24 Q 176.81 39.8 179.81 39.8 L 179.81 39.8 Z  M 219.05 27.14 L 224.57 27.8 L 224.57 72.14 L 219.71 72.14 L 219.17 67.76 L 219.17 67.76 Q 217.61 70.16 215.27 71.51 L 215.27 71.51 L 215.27 71.51 Q 212.93 72.86 210.05 72.86 L 210.05 72.86 L 210.05 72.86 Q 204.41 72.86 201.26 68.42 L 201.26 68.42 L 201.26 68.42 Q 198.11 63.98 198.11 56.48 L 198.11 56.48 L 198.11 56.48 Q 198.11 51.62 199.61 47.84 L 199.61 47.84 L 199.61 47.84 Q 201.11 44.06 203.93 41.93 L 203.93 41.93 L 203.93 41.93 Q 206.75 39.8 210.53 39.8 L 210.53 39.8 L 210.53 39.8 Q 215.39 39.8 219.05 43.7 L 219.05 43.7 L 219.05 27.14 Z  M 211.25 68.48 L 211.25 68.48 Q 213.77 68.48 215.57 67.31 L 215.57 67.31 L 215.57 67.31 Q 217.37 66.14 219.05 63.8 L 219.05 63.8 L 219.05 48.32 L 219.05 48.32 Q 217.49 46.28 215.72 45.23 L 215.72 45.23 L 215.72 45.23 Q 213.95 44.18 211.73 44.18 L 211.73 44.18 L 211.73 44.18 Q 208.07 44.18 206.06 47.24 L 206.06 47.24 L 206.06 47.24 Q 204.05 50.3 204.05 56.36 L 204.05 56.36 L 204.05 56.36 Q 204.05 62.48 205.91 65.48 L 205.91 65.48 L 205.91 65.48 Q 207.77 68.48 211.25 68.48 L 211.25 68.48 Z  M 259.85 55.4 L 259.85 55.4 Q 259.85 56.78 259.73 58.22 L 259.73 58.22 L 239.57 58.22 L 239.57 58.22 Q 239.93 63.44 242.21 65.9 L 242.21 65.9 L 242.21 65.9 Q 244.49 68.36 248.09 68.36 L 248.09 68.36 L 248.09 68.36 Q 250.37 68.36 252.29 67.7 L 252.29 67.7 L 252.29 67.7 Q 254.21 67.04 256.31 65.6 L 256.31 65.6 L 258.71 68.9 L 258.71 68.9 Q 253.67 72.86 247.67 72.86 L 247.67 72.86 L 247.67 72.86 Q 241.07 72.86 237.38 68.54 L 237.38 68.54 L 237.38 68.54 Q 233.69 64.22 233.69 56.66 L 233.69 56.66 L 233.69 56.66 Q 233.69 51.74 235.28 47.93 L 235.28 47.93 L 235.28 47.93 Q 236.87 44.12 239.84 41.96 L 239.84 41.96 L 239.84 41.96 Q 242.81 39.8 246.83 39.8 L 246.83 39.8 L 246.83 39.8 Q 253.13 39.8 256.49 43.94 L 256.49 43.94 L 256.49 43.94 Q 259.85 48.08 259.85 55.4 L 259.85 55.4 Z  M 254.39 54.14 L 254.39 53.78 L 254.39 53.78 Q 254.39 49.1 252.53 46.64 L 252.53 46.64 L 252.53 46.64 Q 250.67 44.18 246.95 44.18 L 246.95 44.18 L 246.95 44.18 Q 240.17 44.18 239.57 54.14 L 239.57 54.14 L 254.39 54.14 Z  M 289.97 64.76 L 289.97 64.76 Q 289.97 66.68 290.63 67.61 L 290.63 67.61 L 290.63 67.61 Q 291.29 68.54 292.61 69.02 L 292.61 69.02 L 291.35 72.86 L 291.35 72.86 Q 288.89 72.56 287.39 71.48 L 287.39 71.48 L 287.39 71.48 Q 285.89 70.4 285.17 68.12 L 285.17 68.12 L 285.17 68.12 Q 281.99 72.86 275.75 72.86 L 275.75 72.86 L 275.75 72.86 Q 271.07 72.86 268.37 70.22 L 268.37 70.22 L 268.37 70.22 Q 265.67 67.58 265.67 63.32 L 265.67 63.32 L 265.67 63.32 Q 265.67 58.28 269.3 55.58 L 269.3 55.58 L 269.3 55.58 Q 272.93 52.88 279.59 52.88 L 279.59 52.88 L 284.45 52.88 L 284.45 50.54 L 284.45 50.54 Q 284.45 47.18 282.83 45.74 L 282.83 45.74 L 282.83 45.74 Q 281.21 44.3 277.85 44.3 L 277.85 44.3 L 277.85 44.3 Q 274.37 44.3 269.33 45.98 L 269.33 45.98 L 267.95 41.96 L 267.95 41.96 Q 273.83 39.8 278.87 39.8 L 278.87 39.8 L 278.87 39.8 Q 284.45 39.8 287.21 42.53 L 287.21 42.53 L 287.21 42.53 Q 289.97 45.26 289.97 50.3 L 289.97 50.3 L 289.97 64.76 Z  M 277.01 68.72 L 277.01 68.72 Q 281.75 68.72 284.45 63.8 L 284.45 63.8 L 284.45 56.54 L 280.31 56.54 L 280.31 56.54 Q 271.55 56.54 271.55 63.02 L 271.55 63.02 L 271.55 63.02 Q 271.55 65.84 272.93 67.28 L 272.93 67.28 L 272.93 67.28 Q 274.31 68.72 277.01 68.72 L 277.01 68.72 Z " fill="rgb(70,70,70)"/></g></g></svg>