<?xml version="1.0" encoding="UTF-8" standalone="no"?><!-- Generator: Gravit.io --><svg xmlns="http://www.w3.org/2000/svg" xmlns:xlink="http://www.w3.org/1999/xlink" style="isolation:isolate" viewBox="0 0 512 512" width="512pt" height="512pt"><defs><clipPath id="_clipPath_nC3Ys8UzoGbvkQGQzk7hEji1MJialy5d"><rect width="512" height="512"/></clipPath></defs><g clip-path="url(#_clipPath_nC3Ys8UzoGbvkQGQzk7hEji1MJialy5d)"><linearGradient id="_lgradient_0" x1="0.09735342173931244" y1="0.1716626966836728" x2="0.7998701245497066" y2="0.8718700644784161" gradientTransform="matrix(500,0,0,488.229,6,11.886)" gradientUnits="userSpaceOnUse"><stop offset="0%" stop-opacity="1" style="stop-color:rgb(34,158,230)"/><stop offset="31.73913043478261%" stop-opacity="1" style="stop-color:rgb(16,118,212)"/><stop offset="66.95652173913044%" stop-opacity="1" style="stop-color:rgb(16,130,216)"/><stop offset="96.95652173913044%" stop-opacity="1" style="stop-color:rgb(14,115,197)"/></linearGradient><path d=" M 221.532 454.122 C 232.8 455.504 244.307 456.219 256 456.219 C 393.979 456.219 506 356.67 506 234.053 C 506 111.435 393.979 11.886 256 11.886 C 118.021 11.886 6 111.435 6 234.053 C 6 285.185 25.48 332.306 58.203 369.867 C 52.859 381.52 49.88 394.479 49.88 408.128 C 49.88 458.897 91.097 500.114 141.865 500.114 C 175.885 500.114 205.615 481.607 221.532 454.122 Z " fill-rule="evenodd" fill="url(#_lgradient_0)"/><g><path d=" M 181.412 371.066 L 224.575 268.754 L 178.712 199.11 L 329.37 89.842 L 181.412 371.066 L 181.412 371.066 Z " fill="rgb(211,215,239)"/><path d=" M 181.412 371.066 L 178.712 377.467 L 333.288 265.357 L 287.425 205.905 L 333.288 87 L 329.37 89.842 L 181.412 371.066 L 181.412 371.066 Z " fill="rgb(238,238,238)"/></g></g></svg>